<?xml version="1.0" encoding="iso-8859-1"?>
<!-- Generator: Adobe Illustrator 19.0.0, SVG Export Plug-In . SVG Version: 6.00 Build 0)  -->
<svg version="1.1" id="Capa_1" xmlns="http://www.w3.org/2000/svg" xmlns:xlink="http://www.w3.org/1999/xlink" x="0px" y="0px"
	 viewBox="0 0 491.52 491.52" style="enable-background:new 0 0 491.52 491.52;" xml:space="preserve">
<circle style="fill:#EA8953;" cx="245.76" cy="245.76" r="245.76"/>
<path style="fill:#44C4A1;" d="M104.96,245.76c0,77.762,63.039,140.8,140.8,140.8v-281.6
	C167.999,104.96,104.96,167.998,104.96,245.76z"/>
<path style="fill:#3EA69B;" d="M245.76,104.96v281.6c77.761,0,140.8-63.038,140.8-140.8
	C386.56,167.998,323.521,104.96,245.76,104.96z"/>
<polygon style="fill:#31978C;" points="330.624,224.116 272.525,224.116 272.525,166.017 218.995,166.017 218.995,224.116 
	160.896,224.116 160.896,277.645 218.995,277.645 218.995,335.743 272.525,335.743 272.525,277.645 330.624,277.645 "/>
<polygon style="fill:#FFFFFF;" points="330.624,213.876 272.525,213.876 272.525,155.777 218.995,155.777 218.995,213.876 
	160.896,213.876 160.896,267.405 218.995,267.405 218.995,325.503 272.525,325.503 272.525,267.405 330.624,267.405 "/>
<g>
</g>
<g>
</g>
<g>
</g>
<g>
</g>
<g>
</g>
<g>
</g>
<g>
</g>
<g>
</g>
<g>
</g>
<g>
</g>
<g>
</g>
<g>
</g>
<g>
</g>
<g>
</g>
<g>
</g>
</svg>
