<?xml version="1.0" encoding="iso-8859-1"?>
<!-- Generator: Adobe Illustrator 19.0.0, SVG Export Plug-In . SVG Version: 6.00 Build 0)  -->
<svg version="1.1" id="Capa_1" xmlns="http://www.w3.org/2000/svg" xmlns:xlink="http://www.w3.org/1999/xlink" x="0px" y="0px"
	 viewBox="0 0 491.52 491.52" style="enable-background:new 0 0 491.52 491.52;" xml:space="preserve">
<circle style="fill:#EA8953;" cx="245.76" cy="245.76" r="245.76"/>
<path style="fill:#EBF0F3;" d="M104.96,378.463c0,7.936,6.434,14.37,14.37,14.37h252.86c7.936,0,14.37-6.434,14.37-14.37V186.606
	h-281.6V378.463z"/>
<path style="fill:#FFFFFF;" d="M104.96,368.223c0,7.936,6.434,14.37,14.37,14.37h252.86c7.936,0,14.37-6.434,14.37-14.37V186.606
	h-281.6V368.223z"/>
<rect x="104.96" y="176.364" style="fill:#EBF0F3;" width="281.6" height="10.24"/>
<path style="fill:#64798A;" d="M372.19,121.803H119.33c-7.937,0-14.37,6.434-14.37,14.37v40.194h281.6v-40.194
	C386.56,128.237,380.126,121.803,372.19,121.803z"/>
<circle style="fill:#3A556A;" cx="149.146" cy="137.324" r="9.411"/>
<path style="fill:#EBF0F3;" d="M141.045,106.772v29.349c0,4.465,3.62,8.085,8.086,8.085V98.687
	C144.665,98.687,141.045,102.307,141.045,106.772z"/>
<path style="fill:#E1E6E9;" d="M149.131,98.687v45.519c4.466,0,8.086-3.62,8.086-8.085v-29.349
	C157.217,102.307,153.596,98.687,149.131,98.687z"/>
<circle style="fill:#3A556A;" cx="186.368" cy="137.324" r="9.411"/>
<path style="fill:#EBF0F3;" d="M178.259,106.772v29.349c0,4.465,3.62,8.085,8.086,8.085V98.687
	C181.879,98.687,178.259,102.307,178.259,106.772z"/>
<path style="fill:#E1E6E9;" d="M186.345,98.687v45.519c4.466,0,8.086-3.62,8.086-8.085v-29.349
	C194.43,102.307,190.811,98.687,186.345,98.687z"/>
<circle style="fill:#3A556A;" cx="305.152" cy="137.324" r="9.411"/>
<path style="fill:#EBF0F3;" d="M297.089,106.772v29.349c0,4.465,3.62,8.085,8.086,8.085V98.687
	C300.71,98.687,297.089,102.307,297.089,106.772z"/>
<path style="fill:#E1E6E9;" d="M305.175,98.687v45.519c4.466,0,8.086-3.62,8.086-8.085v-29.349
	C313.261,102.307,309.641,98.687,305.175,98.687z"/>
<circle style="fill:#3A556A;" cx="342.39" cy="137.324" r="9.411"/>
<path style="fill:#EBF0F3;" d="M334.303,106.772v29.349c0,4.465,3.62,8.085,8.086,8.085V98.687
	C337.923,98.687,334.303,102.307,334.303,106.772z"/>
<path style="fill:#E1E6E9;" d="M342.389,98.687v45.519c4.466,0,8.085-3.62,8.085-8.085v-29.349
	C350.475,102.307,346.855,98.687,342.389,98.687z"/>
<g>
	<rect x="130.012" y="215.194" style="fill:#EBF0F3;" width="231.475" height="9.539"/>
	<rect x="130.012" y="247.501" style="fill:#EBF0F3;" width="231.475" height="9.539"/>
	<rect x="130.012" y="279.834" style="fill:#EBF0F3;" width="231.475" height="9.539"/>
	<rect x="130.012" y="312.141" style="fill:#EBF0F3;" width="231.475" height="9.539"/>
	<rect x="130.012" y="344.474" style="fill:#EBF0F3;" width="134.4" height="9.539"/>
</g>
<g>
</g>
<g>
</g>
<g>
</g>
<g>
</g>
<g>
</g>
<g>
</g>
<g>
</g>
<g>
</g>
<g>
</g>
<g>
</g>
<g>
</g>
<g>
</g>
<g>
</g>
<g>
</g>
<g>
</g>
</svg>
