<?xml version="1.0" encoding="iso-8859-1"?>
<!-- Generator: Adobe Illustrator 19.0.0, SVG Export Plug-In . SVG Version: 6.00 Build 0)  -->
<svg version="1.1" id="Capa_1" xmlns="http://www.w3.org/2000/svg" xmlns:xlink="http://www.w3.org/1999/xlink" x="0px" y="0px"
	 viewBox="0 0 491.52 491.52" style="enable-background:new 0 0 491.52 491.52;" xml:space="preserve">
<circle style="fill:#EA8953;" cx="245.76" cy="245.76" r="245.76"/>
<path style="fill:#E1E6E9;" d="M104.96,378.463c0,7.936,6.434,14.37,14.37,14.37h252.86c7.936,0,14.37-6.434,14.37-14.37V186.606
	h-281.6V378.463z"/>
<rect x="104.96" y="176.364" style="fill:#EBF0F3;" width="281.6" height="10.24"/>
<path style="fill:#64798A;" d="M372.19,121.802H119.33c-7.937,0-14.37,6.434-14.37,14.37v40.194h281.6v-40.194
	C386.56,128.236,380.126,121.802,372.19,121.802z"/>
<circle style="fill:#3A556A;" cx="149.146" cy="137.324" r="9.411"/>
<path style="fill:#EBF0F3;" d="M141.045,106.772v29.349c0,4.465,3.62,8.085,8.086,8.085V98.687
	C144.666,98.687,141.045,102.307,141.045,106.772z"/>
<path style="fill:#E1E6E9;" d="M149.131,98.687v45.519c4.466,0,8.086-3.62,8.086-8.085v-29.349
	C157.217,102.307,153.597,98.687,149.131,98.687z"/>
<circle style="fill:#3A556A;" cx="186.368" cy="137.324" r="9.411"/>
<path style="fill:#EBF0F3;" d="M178.259,106.772v29.349c0,4.465,3.62,8.085,8.085,8.085V98.687
	C181.879,98.687,178.259,102.307,178.259,106.772z"/>
<path style="fill:#E1E6E9;" d="M186.345,98.687v45.519c4.466,0,8.086-3.62,8.086-8.085v-29.349
	C194.43,102.307,190.811,98.687,186.345,98.687z"/>
<circle style="fill:#3A556A;" cx="305.152" cy="137.324" r="9.411"/>
<path style="fill:#EBF0F3;" d="M297.089,106.772v29.349c0,4.465,3.62,8.085,8.086,8.085V98.687
	C300.71,98.687,297.089,102.307,297.089,106.772z"/>
<path style="fill:#E1E6E9;" d="M305.176,98.687v45.519c4.466,0,8.085-3.62,8.085-8.085v-29.349
	C313.261,102.307,309.641,98.687,305.176,98.687z"/>
<circle style="fill:#3A556A;" cx="342.39" cy="137.324" r="9.411"/>
<path style="fill:#EBF0F3;" d="M334.304,106.772v29.349c0,4.465,3.62,8.085,8.085,8.085V98.687
	C337.924,98.687,334.304,102.307,334.304,106.772z"/>
<path style="fill:#E1E6E9;" d="M342.389,98.687v45.519c4.466,0,8.086-3.62,8.086-8.085v-29.349
	C350.475,102.307,346.855,98.687,342.389,98.687z"/>
<path style="fill:#FFFFFF;" d="M386.56,186.606h-281.6v191.858c0,7.936,6.434,14.37,14.37,14.37h196.323l70.907-70.907V186.606z"/>
<path style="fill:#EBF0F3;" d="M386.56,321.926h-56.538c-7.937,0-14.37,6.434-14.37,14.37v56.538L386.56,321.926z"/>
<g>
	<path style="fill:#E56353;" d="M169.699,229.652h43.667v120.134h-19.26V247.695h-24.407V229.652z"/>
	<path style="fill:#E56353;" d="M288.126,301.14v-21.988h19.246v21.988h14.449v18.393h-14.449v30.254h-19.246v-30.254h-51.556
		v-17.875l44.171-72.005h22.169l-43.485,71.487H288.126z"/>
</g>
<g>
</g>
<g>
</g>
<g>
</g>
<g>
</g>
<g>
</g>
<g>
</g>
<g>
</g>
<g>
</g>
<g>
</g>
<g>
</g>
<g>
</g>
<g>
</g>
<g>
</g>
<g>
</g>
<g>
</g>
</svg>
