<?xml version="1.0" encoding="iso-8859-1"?>
<!-- Generator: Adobe Illustrator 19.0.0, SVG Export Plug-In . SVG Version: 6.00 Build 0)  -->
<svg version="1.1" id="Capa_1" xmlns="http://www.w3.org/2000/svg" xmlns:xlink="http://www.w3.org/1999/xlink" x="0px" y="0px"
	 viewBox="0 0 491.52 491.52" style="enable-background:new 0 0 491.52 491.52;" xml:space="preserve">
<circle style="fill:#45B39C;" cx="245.76" cy="245.76" r="245.76"/>
<path style="fill:#FFFFFF;" d="M345.858,180.345c-3.682-42.237-39.085-75.385-82.277-75.385c-22.75,0-43.347,9.199-58.293,24.073
	c-5.84-2.732-12.335-4.301-19.21-4.301c-25.115,0-45.475,20.359-45.475,45.474c0,3.696,0.49,7.269,1.32,10.71
	c-21.042,3.988-36.962,22.448-36.962,44.65c0,25.115,20.358,45.474,45.472,45.474h190.653c25.115,0,45.475-20.359,45.475-45.474
	C386.56,202.064,368.728,182.732,345.858,180.345z"/>
<g>
	<path style="fill:#EBF0F3;" d="M136.146,204.644l15.855-3.005l-1.615-6.695l-5.603,1.062c-8.222,1.557-15.057,6.453-19.415,13.062
		C128.581,206.966,132.189,205.394,136.146,204.644z"/>
	<path style="fill:#EBF0F3;" d="M344.264,195.621l-12.605-1.317l-1.1-12.625c-3.005-34.407-32.425-61.36-66.98-61.36
		c-17.9,0-34.755,6.96-47.455,19.6l-7.61,7.575l-9.73-4.547c-4.05-1.895-8.325-2.855-12.705-2.855
		c-10.508,0-19.763,5.418-25.152,13.6c4.745-3.128,10.417-4.962,16.515-4.962c4.38,0,8.655,0.96,12.705,2.855l9.73,4.548l7.61-7.575
		c12.7-12.64,29.555-19.6,47.455-19.6c34.555,0,63.975,26.953,66.98,61.36l1.1,12.625l12.605,1.317
		c15.355,1.603,26.935,14.475,26.935,29.945c0,6.096-1.835,11.767-4.96,16.513c8.18-5.389,13.598-14.644,13.598-25.151
		C371.198,210.097,359.619,197.224,344.264,195.621z"/>
	<rect x="141.158" y="238.531" style="fill:#EBF0F3;" width="209.203" height="148.029"/>
</g>
<rect x="153.395" y="250.772" style="fill:#27A2DB;" width="184.678" height="123.494"/>
<polygon style="fill:#FCD462;" points="153.422,345.3 208.318,290.404 292.186,374.272 153.422,374.295 "/>
<polygon style="fill:#DC8744;" points="292.186,374.295 318.158,374.295 244.121,326.206 "/>
<polygon style="fill:#F6C358;" points="338.096,297.257 297.707,268.308 244.121,326.206 318.158,374.295 338.096,374.295 "/>
<circle style="fill:#FFFFFF;" cx="187.392" cy="275.983" r="11.884"/>
<g>
</g>
<g>
</g>
<g>
</g>
<g>
</g>
<g>
</g>
<g>
</g>
<g>
</g>
<g>
</g>
<g>
</g>
<g>
</g>
<g>
</g>
<g>
</g>
<g>
</g>
<g>
</g>
<g>
</g>
</svg>
