<?xml version="1.0" encoding="iso-8859-1"?>
<!-- Generator: Adobe Illustrator 19.0.0, SVG Export Plug-In . SVG Version: 6.00 Build 0)  -->
<svg version="1.1" id="Capa_1" xmlns="http://www.w3.org/2000/svg" xmlns:xlink="http://www.w3.org/1999/xlink" x="0px" y="0px"
	 viewBox="0 0 491.52 491.52" style="enable-background:new 0 0 491.52 491.52;" xml:space="preserve">
<circle style="fill:#E05B49;" cx="245.76" cy="245.76" r="245.76"/>
<circle style="fill:#FCD462;" cx="245.76" cy="245.76" r="81.029"/>
<g>
	<path style="fill:#F6C358;" d="M284.125,174.385c3.65,11.276,5.852,23.195,6.402,35.468c2.186,48.804-30.854,92.215-74.068,111.389
		c9.098,3.534,18.955,5.548,29.301,5.548c44.751,0,81.03-36.279,81.03-81.03C326.79,214.891,309.522,188.065,284.125,174.385z"/>
	<path style="fill:#F6C358;" d="M245.759,104.96c-6.579,0-11.913,5.334-11.913,11.913v19.721c0,6.579,5.334,11.913,11.913,11.913
		c6.58,0,11.914-5.334,11.914-11.913v-19.721C257.673,110.294,252.339,104.96,245.759,104.96z"/>
	<path style="fill:#F6C358;" d="M245.759,343.013c-6.579,0-11.913,5.333-11.913,11.913v19.721c0,6.58,5.334,11.913,11.913,11.913
		c6.58,0,11.914-5.334,11.914-11.913v-19.721C257.673,348.347,252.339,343.013,245.759,343.013z"/>
	<path style="fill:#F6C358;" d="M386.56,245.759c0-6.579-5.334-11.913-11.913-11.913h-19.721c-6.579,0-11.913,5.334-11.913,11.913
		c0,6.58,5.333,11.914,11.913,11.914h19.721C381.226,257.673,386.56,252.339,386.56,245.759z"/>
	<path style="fill:#F6C358;" d="M148.507,245.759c0-6.579-5.334-11.913-11.913-11.913h-19.721c-6.58,0-11.913,5.334-11.913,11.913
		c0,6.58,5.334,11.914,11.913,11.914h19.721C143.173,257.673,148.507,252.339,148.507,245.759z"/>
	<path style="fill:#F6C358;" d="M345.32,146.199c-4.652-4.652-12.195-4.652-16.847,0.001l-13.945,13.944
		c-4.652,4.653-4.652,12.195-0.001,16.847c4.653,4.653,12.196,4.653,16.848,0.001l13.944-13.945
		C349.973,158.395,349.973,150.852,345.32,146.199z"/>
	<path style="fill:#F6C358;" d="M176.991,314.528c-4.652-4.652-12.195-4.652-16.847,0.001L146.2,328.473
		c-4.653,4.652-4.653,12.195-0.001,16.847c4.653,4.653,12.196,4.653,16.848,0l13.945-13.944
		C181.644,326.724,181.644,319.181,176.991,314.528z"/>
	<path style="fill:#F6C358;" d="M345.321,345.32c4.652-4.652,4.652-12.195-0.001-16.847l-13.944-13.945
		c-4.653-4.652-12.195-4.652-16.847-0.001c-4.653,4.653-4.653,12.196,0,16.848l13.945,13.944
		C333.125,349.973,340.668,349.973,345.321,345.32z"/>
	<path style="fill:#F6C358;" d="M176.992,176.991c4.652-4.652,4.652-12.195-0.001-16.847L163.047,146.2
		c-4.652-4.653-12.195-4.653-16.847-0.001c-4.653,4.653-4.653,12.196,0,16.848l13.944,13.945
		C164.796,181.644,172.339,181.644,176.992,176.991z"/>
</g>
<g>
</g>
<g>
</g>
<g>
</g>
<g>
</g>
<g>
</g>
<g>
</g>
<g>
</g>
<g>
</g>
<g>
</g>
<g>
</g>
<g>
</g>
<g>
</g>
<g>
</g>
<g>
</g>
<g>
</g>
</svg>
